/* XPM */
static char *_4c0302a76e84a13834ef9959dfe965bauZkr40RpMKn4Mec[] = {
/* columns rows colors chars-per-pixel */
"100 100 85 1 ",
"  c #65574B",
". c #66594D",
"X c #695B4E",
"o c #675B50",
"O c #6B5E52",
"+ c #6D6156",
"@ c #6E645A",
"# c #6F695B",
"$ c #716255",
"% c #71665C",
"& c #726A5E",
"* c #786A5F",
"= c #6F6760",
"- c #716760",
"; c #746C62",
": c #7A6E64",
"> c #766F69",
", c #7A6F68",
"< c #777065",
"1 c #797166",
"2 c #77706B",
"3 c #7D736B",
"4 c #7D7671",
"5 c #7E7974",
"6 c #80756D",
"7 c #81756D",
"8 c #82786F",
"9 c #837770",
"0 c #837A73",
"q c #857A72",
"w c #857B75",
"e c #867B74",
"r c #837C76",
"t c #867C74",
"y c #897E76",
"u c #847E79",
"i c #8A7F79",
"p c #86817C",
"a c #898079",
"s c #8A817C",
"d c #8C827C",
"f c #8C827D",
"g c #8B847F",
"h c #8C847E",
"j c #90867F",
"k c #8B8581",
"l c #8E8781",
"z c #8D8884",
"x c #8F8984",
"c c #918681",
"v c #908781",
"b c #918882",
"n c #928984",
"m c #908A86",
"M c #948B86",
"N c #988D87",
"B c #938E8A",
"V c #948F8A",
"C c #988F89",
"Z c #96908C",
"A c #97938F",
"S c #98918D",
"D c #9A938D",
"F c #9A948F",
"G c #9B9590",
"H c #9C9691",
"J c #9C9794",
"K c #9F9995",
"L c #9F9B98",
"P c #A0948E",
"I c #A19791",
"U c #A19B96",
"Y c #A09B98",
"T c #A29C99",
"R c #A39D99",
"E c #A29E9A",
"W c #A49F9B",
"Q c #A39F9C",
"! c #A49F9C",
"~ c #A4A09C",
"^ c #A6A19D",
"/ c #A6A19E",
"( c #A9A39E",
") c #A7A3A0",
"_ c #AAA4A1",
/* pixels */
"OOOOOOOXXXXXXXXX1tKKi;&%&@+@+###++++++++++$OOO3M/Ef;OOOOoOOOOOOOOOOO+OO++++++++++%%+++++3lZt:+++O.Oo",
"OOOOOXXXXXXXXXXX3aYHt;@%&@@@###+++++OO++OO+XOO3bUEv;O+Oo.OOO++OOOOO++OOOOOO++++O++++++++3hzq;OOO+OOO",
"OOOXXXXOXXXXX. X6f!F0;@#@@@##+OOO+++OoOO++OoOO:vE!b:O++OoO+O++OOOOOO+OOOOO+O++++++++++++3szw6+OOOOOO",
"OOOXXXXXXXXXX  O0l/Di:%#@@@##+O+OO+OOOOOO+OOOO:v!/b:OOOOOOOOOOOOOOOOOOOOOO++OO++++++++++3sz06OOOO..O",
"OXXXXXXXXXXX. XOqn/na3@@@#+++++##++OOOOOOOOOOO:bW!n:o.OOOOOOOOOo.OOOOo OOOOOOO+OO++++++#0lBw3OOoOO.X",
"XXXXXXXXXX XX X%qV/ly;@@##@++++O++OOoOOOOXOOO%wVEEM0+OOOO+OOOOOOOOOOOX.OOOOOOO+OOO+++++#qvnt:OOooo..",
"XOXXXXXXXX XXX:qrJ!gt;@@##+++++O+OOOOOOOOOOO;tlE//Di0%OOOOOOO++OOOOOOOOOOOOoOOOOOOO++++%wlki;OOO..OO",
"XXXXXXXXX XO%60rZQEzu3@##++++++++OOOOOOOOX+3wlU/_/EDs0%OOOOoOOOOOOOOOOOOOOoOOOoOOOOO+++%tnlt;OOOOOOX",
"OXXXXXXXX+:604rH/EEKpt3%+++#++++OOOOOOOXX%6wzE/(/__/Hi6%OOO.OOOOOOOOOOOOOO.OOOOXOOOO+OO%wlk0%OOOOOO.",
"XXXXXO$:3634uBEEEE//Kst9&++%+++OOOOOOOXO%00z/_WUHH/__Kaq;OO.OOO.XOOOOOOOOOOOOOOOOOO.OO.%ilg9%XOOOOOX",
"X+%:36033rkHUEEUWEE//Entq6;#++OOOOoOOO%33rH/WUDFDFFW__Ku9:OXXXX....XOOO..OOOOOOOOOOoOO.%inl0%.OO..XX",
"10q6335zHWUDMvsfbH/////Hpwy1++OOOO.O%:03pU/UHVs0bHDDW_/Kp93@O..X..XXXX..XOOOOOOOOOOOOOO#wVMi;OOOOXXO",
"0345kZKEFMfw0iiiiV//WPIWEk0t1+OOOOO:000Z//HVs3;;3zFFG//_Ep96%X.X..XXXX..XXXOOOO.OOOOO+O%iMBu;OO.O%:q",
"pBHEUChft0003333qvW/DqynIKk0t3+OO%303kU/EFa3:;;;;:sDGGG/_Wk30:+X..XX.X...X.XOOX.oOOOOOO:iMBu;++;6t04",
"EHMvy311:;;;;&;<3fHEi%:qyMEB0w0;1q30B/WDM0;;;;;;;;;0MFFHU//z361%O.XXXX.XXX... .OOoOO.O%qtVB0q9w0424z",
"by61;;;&;&&;;;&;:tZEt%+*36vEKp4005zEEUDa3;;;;;;;:;;;3tzDFDU/Z3381+X.XXXXX...X.XOOOOO+3tw4ZV44>>0zZHH",
"3;;;;;;&;;;;;;&;:qV/f:$O%:6aUEnrzH!WDl4:;;;;;;;;:;;;;;;>0lDHUH5306%O XXXXX..XX...O+:wai45HG45kVEHCjy",
";;;:;;&;;;;;;;;;;6n/b:$O$+%3tF!!/EHV0;;;;;;;;:;::;;@@;;;@;0MDUEp3333+XXXXXX....O+:qiw5rnHHGGHHDvy3;;",
";;;;;&&;;&;;;;;&#3hEM3$OOOO::nEEEDa>;;;;:;;:;;::;;;@@@;:=@;:aDEWB5>3:XXXXXXXO%:30044rBE/EHHZhat61;&&",
";;;:;&;;;;;;;;;&#<aKD3$XO$O+;M/ED0;=;;;;;;;;;;;;;;;=;;;;;@;@;0MHWWB>3;X.O+;30q034uBGE//EDbayq81;;;;;",
";;;;;;;;;;;;&;;;;;tDH6%XO+$%3DEHh:=;;;;;;;=@;;;;;;;;;;;;;;;;;;:tDW/Z>333663335pBH/////Khyytq<;;;;&;;",
"&&&&&;;;;;;;;;;;;;qbH6%$OO+%3EEF0;;;;;@;;;;@=;;;;;;;;;;;;;;;;;&;tDE/Z43334rkZKEWDCMHEEnwtq3;&&&&&&&&",
"&&;;&&&&&;;;;;;;;;3hK9%OOX+&u)Eb,;;;;;;;=;;;;;;;;;-@;@;&;;#;;@#@&0ZU/JlBHE/EFMfy833yDUsy3;&##;&&&&@#",
";;;;;;;;&&;;;;;;;;3aKu;OOO+;k/Ft;;;@=;;;@;:;;@-@;;;;;;;;;&@@%&&@@@3MIW///Hnft3:#@##3nH0q;&@##&&;&###",
"&&&&;;&;&;;;;;#&;;1tHl:+OO%3ZHb:;;;;@;=-;;;;@@@@;;;;;;;;&%@%;;@@@@@0DDEEEa31&&&###&3VB33&&&#&##&&###",
";&&&&&##&;;;;;&&;;:tZV:+OO;5KHu@@;;;;;@;;;;-;;@&;;;;;;;;@@&&;&%%&&#:ZDK//l8&&%&%#&&8HB33@#&&&&;&&&&#",
";;;;#&&&&;;;;&&&&;;6nG3+X+:k!D0@;;;;;;;;;;;;;;;%%%;;&&;;@@@@@@@%%%@3nMDEKMt1&&&&&#;0FZt3##&&&####&&&",
"&&&&&&&&&&&&;&&&&;;3hH3%O%3HEM3;;=;;;;@-;;;;;;;%&;-@%&;;%@@+@+@%@%;as3gGEJs3&%&&&&;0KMy3&&&&&&&&#&&&",
"&&&&&&&&&&&;&&&&;&&3aK0%O&3EHh;@;;;@-;;@@@@%;;;;;@@@%;;%%@@@@@@@@@:a;#:ME!D0<%%&##;sEhy3&&&&##&&&&&&",
"&&&&&&&&#&&;&&&;&&;1iHp;+;p/Dt;;;@@%;;;@@@@;;;;@;%@@%%%%%@@@@#+%@#03@@@0DE/s3&#&&&:sHty3#%&&%#&&&&&&",
"&&&&&&&&&&&&&&&&;;;:tVl:%;zUn3&;;-;;;;@#@%@@@;%++%@@@@@%%@@@%%@;@@0%@@@&hH/z8&+#%&1uHuy3%%&&&&&&&&&&",
"&&&&&&&&&&;&&&&&;;;:tnZ3:3KHl:;%-;=;;;@@%%;##@#+@@@@@@@@;@@@@@@@@:;@@#@+:MKZ33&%%&;0Kut6%%&&&&&&&##&",
"&&##&&;&&&&&&&&&<&;:wlK3:u/Da;;&#;;;;;;;;@;;#@@@@@@@%@@@@%@@@@@@;3@#@@@##aFJr6;%&&15Kst3###&&&&&##&&",
"&&#&&&&&&&&&&&&;;;&1qsEr;BEM9;;;==@@%;&;;@%@@@@;%@@@@@@@@@@@@@@@::@@@@@@+:MEZ33&&&3rHsy1###&&&&&##&#",
"&&;;&&&&&&&&&&&&&&&3tuKZ5YKb3;;@@&@&@@@&%%%@+@@@@%;@@%%@%@@@@@@@:@+@@@#@##0HEr:;%;3kDu0&++###&&&#&&#",
"#&&;&&##&&&&&&&&&&&3itH!K/Fa;;&#%;;%@@@%;;%%#@@%@#;;#@&@@@@@@@@;@@@@%@@#%#;MUZ33&;3Zni3########%&&##",
"&%&&&%&&##&&&&&&&&&<iiVEEWVt;&@&;;;@%%@%@@&@+@@;%#@@@++@@@@@@#@;##########%0ZYp3;:3Hbi3#@#+#####%&#&",
"&&&&%%%&##&&&&&#&&&<tiBE/Kha:&&&;@@@;;%;@@@@@@;%+#@@@@@@######;&#%%##+@@+#+;vHH31:3Hli<@###&&%+####&",
"%##&&%##&&&&;&&#&&&3ain//Hhjf3;&;@+@;;@@;%@@@@+@@#@@@#@%#+++#;:#+#++++@O+###6MEp310Kst&#&###&#++##&&",
"&&&&&&#%&&&#&&&&&&&0a0B//Kpahh0;%;&%%%@@%#@@@#@@@@@@@+%%#+O+#3#++@++++O###+#;vHH33lEs9&#&%####+++#%&",
"&&&%%&&&&&&#&&&&&&3i0z////Duahhy:&;;%@@@@+#+@@@@#+#####@%#+O::@O+@++++++++#%#0VEu:VKu6###&#&&&%###%&",
"&&&%%%&&&&&&&&&&;8i0V//IPUEKp0tha3%%%@@%&@@@@+++++##%#@+###@3#+@++++++@++O+##tVFB2ZH06&####%%%%##%#%",
"%%#%&#&&&#&&&&&1ttpH//DiwiNWEz45fh3;;&%%;@@@##++###++@##+++:;+++O++++++O+O++3MMMHHHZ00;##########%%%",
"%&&%&##&;&&&&&3t0gKWUDi6::6jFEKp3ffq:;&@@%@@#+++##+++O+#+O&3@OO++++O+O+++O+&abbbD//K5003;&###+######",
"#&&&%%&&&&&#;0t0BWHnvy6%$%%:8jHKp4ift3%@@@#%%O++#++++O+++O1&++OO+++o+++++++3MMnMlE//Hs433003;&###+##",
"+&&&&&&%&&&3t0rHWNiqq6%$$$$$%:qMKB54tt6;#@+%++#+++OOOO+O+13#++O+O++O++#+++#yMMluB/////LBp4400q81;###",
"&#&#&&&%&<0w4lEUjw966:%$$$$%$+%3tDGp23tt3&@#+##OO+OOO++%:33@++++++#++++++%0bMn0B/WIIW////HZk5440tt31",
"t831&&#&3t0rG/Hyq8:*%%$$$$$$$$O%:9bUHs40y0::;&+O++O++;3:#+:#+++OO+++++++%tbnh5nWFviyjIWDDDHUEHzu4430",
"330tqtwtw4zE/_M96:%%$$$$$O$$$$OOO%3yHEH03qtt0t63333333&+++%%OO++++OO+++%qbu55ZUNi99q9fIny668sbHEYZkr",
"Zzp53343rZHDF/v8:%%%$$$$$$$$$OOOOO$:qnWEk43330qttiafa031;;;6&+++++++++%tlrrHUDfq6:::69fZ0;+O%3yHE/_/",
"___/YGzZEn9qhEf6%%%%$$$$$$++$OO$$$O$*3fHEFzkpr522233440qttyaatq368866thfr5KUMw3*$$$$$:8hz3:%:0V//_/(",
"UEW//___!t36fEf6%%%$$$$$+OO+$+OOOO+OO%3wVKW////KZZBzkp55423334440raaahs45KEv8:$OOOO$$$:8hs663B//WHZH",
"pahznVHW(V33aEi1%%%$$OO+OO+$+XXO++OO++%8V/WEUW/////WEWUWEKHHBzzkr555543pKEM6%OOOOXXOOOO:6nr4ZEEKDMp0",
";;;;;:3hDWn6aEi:$$$$$$++O+OOOXOOOOX$$$$6V//DfhbDIUUMvjhvbDFFFHEEWWWWWEYKKEy:OOOOOXXOOOO$:wDKEWKFz3;@",
";;;;;;;;uD/VkEi:$$$$$$+OOOOOOXXOOXO$+O%6D//nattaafatt3399tiiyfhhbMMMFIUHEEf:+OOXXXXXOOOO%3nEEHZ0;@;@",
";;;;-;;;:hFUWWs3%$$$$$+OOOOXXXOOOXO$O$*6VEEht333311<1;;1:333380qwwutifnF//H0;OXXXXXXXOOO+:lEEZ0;@@@;",
";;;@@;;;;:lFW/V6:%$$$$+OXOOXXXOO$OXO$$:qH/Iy3;;;;;:;;<;&;;;;;;;;;;3330thFW/n3+XXOXXXXXOOO%fKED3;@@@@",
"&;;@=;;;;&3MDU/s6%$%$$$+OOOOOOOO+OO$O$1qU/Dy3;<;;;;;;:<;;;&;;;;#;;:<<<34fFWWp;+XXXXXXXOXO*fKKD:@;@@;",
"%-%;;&;;;;;0MZWUt3%$+$$OOOOXOOXOOOO$O$3yEWnt3;;;;;;;;;;;;;;#;;;&;:;<<<<:3vU/K4;OX  XXXXXX%aUFl;&;;;;",
";;@@%&%&&&;;tnDWGu3%$$+OOO+OOOOOOOOOO$3iEHa61;;&;;:::<:;;;;#;;;;;;<<:<<;:3vUWZ3%X  XXXXOO%yKDh;;;&&%",
";&;;;;%%%&@@:aMDUH4:$$OXXOOOOOXOOOO$$%6aWKa3;&&;;;;;;1;;1:1;;;;;;#;<:::;:18MW/l:+XXXXXXOO%wKZg@;@@@@",
"%@%;;;%%%;%@;3bnDUl3*$OXOOOOO$OOOOO$O:8h/Uy8##;<&;;;;1:;:;;;;;;;;;;::::;:<3fI/Er;+XXXXXXO%wYDs@;%@@@",
"@@@;;;;%@%%@;;0bMHY03%$OO+O$$$$OOOOOO:9M/Dt3&;;<;;;;;::;;;&#;;;&;<;;:<:;:;3wbHWK3;+XOXXXO%wKZh%&;@@@",
"%@@%;;%@#&%%;&%3hMHH43%$O$++$$OOOXXOO69D/Vq3;;<;;;;;&&;;;;;;&;##;;;;<<:;:1<3iaVEZ3;+OXXOO%tKVh;%@#@@",
"%@@@%;%@%;@%&@@#:hnUV33%OO$OO+OOOOO$$6qF/bq1&;;;;;;&#;<;;;;;;;;;;;;;::<<:::<3winEz>;OOXOO%wHVh%#@@@%",
"&@@@@&@&&&%%%%@@@:hMUB3,%++OO+OO$$$$%6wHEh61&&&;&;;;&;;;;;&;;:;;;;&:<;;<:::;:taaVEg:;+OOO:tHVl%#@@#@",
"&@@%@@+@%%;&%@@@%@3bZEz3:%+$$$$O$$$+%6yKUa8;&&;;;&;;;;;;;;;;;:;;;;;;;;#&;<1<1t0taCH5::OO+:iKBb%+@+@@",
"@@@-@@@#@@%####&&#%aMDEg3:$$$$$$$OO$:qfWEa01;;&;;;;;;;:;&;<;&;&;::;;;;;;<<;;:3;33tnZ33:$$3iEBM3@@@@@",
"@@######+#%####%&%&ffbHEs33*%$$$$$$$19n/Uy63:;&;;::;;;:<##;;;;&#;;&;;;;;;;;;13;::3tMZ36::6a!Bnt#%@+@",
"@#%+####++########1a&3MUEp6q881::6669qV/Ut631;;;;;;:1;;;;&;;;:;#;;;;;;:;;:::33::::3tHB>6q6a!BV4@@+@#",
"##++++#+++###+###+81#%tDWUt3336999q3,3D!/h001&;;;;&;1;&;;;;;;;;&;;:;;;<;;:<;33<::::3hKk,99lEnD3@+###",
"##++++%#+++%%+#%+&3#++%hHEHkkzr555rplZ///Ua6;#&&;<&#&;;&&;:;;&;;<<;;;;;;;;<;3<;;;:<<0bKr:6BYnD3++++#",
"##++++%#+++##+++#1;++++:VE///WKHHFFIIUEE/_V81##&;;;#&;;;;;;;;;&;<;;;;;;;;;;;<1;;;;<<3tnK4:ZEnD:##@##",
"++#####++++#+++%%3#++++1D//Dbvhfayt06qbE/_Es3;&&&#&&;&&;&&;;;;;;;&;;;&#;&#;;<<<<:;;<<3tDJpKEnM;+####",
"+O+#+++++++##+++;;+++++0H!Ehy0:::%++O%tH/WWUt1;&&#&&&&#;;;&&&;;;;&#;1;#;;&;;1:;:::::<<3iH//UnM&#@@OO",
"%O+++O++++#%%%##:#++#++aU/Dt6&++++OO++3bEMMWV3;&&&;&&;&;;;&&;;;&&&;<1<;;;;;;1:;;<::;:<:3fU/KzV&#++++",
"%##+++#+#++%%%#%;++#++%nE/b6%++++++OOO%yKDaMKs3;&&;;;;;;&#&;;;;;;;;;;<<;&;;;1:;;;:;;:<;:0hE!kV:+++++",
"%%+O+++%$$+%+++;%+++++;DEUa:+++OOOOOOO+6V/viVKt1&&&;;;;;&#;;&&&&;;;;;;;<;;;;1;;;;;;;;;;;3qM/Vkl%++++",
"@+++++++++++++#;++++++3F/Zq%+OOOOOOO+OO;hEDwyFD61&&&&&;&&&;&&;&;;;;####;;;::<;<<<<;;;;;<:3aFWzna%+++",
"+++++++++++++O&%++++++tH!h0%OOOOOOOOOOO$qHK00yHb6;&&&&&;;&&&&;;&;;&@#&;;;;;:;;;<<;;;:;:<<<0sHEkMt#++",
"++++++++OO++++;+OOO+O+bKHtq%++++OOOO+OXO6VEa83tDu3;&&;;&;&#&&;;;;;;;;;;;;&;;1:;;;;;<:::<<;3qlEEsM0++",
"+OOOOOO+O+++O%%++OOOO%DEnwq%+++++OOOOXXO6vEl3%1hH03;&#&&#&&&&&;;;;;;;;;:;;;;3:;;;;;11;;1::<3yV/HuMq%",
"1%OOOO+++++++:+++OO++3HEat3+OOO++OOXXXXO3aEV3;%6MV31###&&&##&&&&&;;;;;;&;;<;3:&;;;;1<;;;;:33yfH/Hunb",
"nny3%+++++++%:OOOOO++fKEpt3OOOOOOOOXXXXO3yHE0:+%6Fl3:&#&&&##&&;&#;;;;;&#&;;;11;&&;;;;<<;<:3ttyM/KHps",
"0hVDMbt:%OO%q%OOOOOO%MHElt:OOOOOOOXXXXXX3iM!g1%O%tH061&&&&&&&&##&;;&;;;;;;&;<1;;&;;;;<;;13qtyaH///Ez",
"ZprlVFHDnf0bn%O+OOOO;FKHay%OOOOOOXXXXXXX%ilHV1%O$1bD06;#&&&&;&&;&&;;;;;;;;;;;1;;<<:;;<;<8yyyiDE/EUW/",
"E/KkrpzMZFHFD8OOOOOOqHEnat+OOOO..XXXXXX +taHE0:+O%6FB33;&;&&;&;;&&;;;;;;;;;;#;;;;<;;&;38ttt0z/UVfvMC",
"fMFWEVkprpFHGD0+OXO+bHKua6O++OOXXXXXXO$%3iiZQz3%OO:yUk33;;&#&&&;;;;;;;;;;;;;&:;;;;;;;3tttt9sHFviw33w",
"6tybDIHUEk5zFHDM8%O%DHZta3OOOOOO+%:36090uszJEH0:OO+3nEu3331;&&&&;;;&;;;;;;;;;3:&;1136ttyq4sUbay3&@@%",
"#&3qqtyaMHBkupzFHDyhDKzua3%%;:33600tukzZKEWE//Z6%OX%tHK5336331;&;;;;;;;::;;::66330000tq04zEFi0;@@###",
"++%&%%%1qfbDHZkrpzDHBEliiiiutwwtsnZHKEUUIFDCDFHt:..O1hEG31366633333666363368330qqq060935ZWUVi;###++#",
"++++++#%%3tyhDHKGkr0Z/p0upgzVDHUHDVMvffffwiiiihs6+XXOqVEZ316633366666666333332>3333334nKMfbMw%##+#++",
"#++++++#++%3qyahDEEG!/JZDHDDDMbbfyt03;:;:;;;:tszt:X+:whE/B4332222>22222225kVHHz55rrpBE/h33hl9#++#+++",
"+++++++++OO+%3qyavG//HVvhiq0633333:;@++@@@#@#3aZsy6tawpE//EKHHHDZDDVVZZZHUWWEEWUE/EEW/Ea36hl3#++++++",
"++%%+++++O++O+%6wan/El033;;;&&%@@@@@@@O+@+@##;iHZu040kH/EUFVbbbbhffaffayfafhjbMVDHDMnFEYl0ll3#++++++",
"%%++++O+OO+OOOO+%wn/Ki:;;;@%;;&@%@@@@@+##+@##&iDEHlBKUHFVbfy9:;;%%++%%%%%%%&:16qiffiiavCKKHh3#++++++",
"+++O+++++O+OOOOOO3nED0;;;;@%;;;@@@@%%#######+%iVE!/EDvfaiiq:+++++++OO+++++++++++;,390wiafHEf:+++++++",
"+$++++++++++OOOoO3bEV0;;@@%@@;@@@@####++++##+%iV!EVhai6;;%++++##+++++%+OOO@+O+++OO++#&:qiVUa;++++O++",
"O+OOOOOOO+++OOOO+6zEb3;;&%%@@@@++###++O++++#+;wVEHsi6%++++++++%++OO%#++O+O++++++++++###;iMUa;+++++++",
"O+OOOOO++++++OOO%0zUl3&&&%@@@@@@+###++O++++%#;wDEVf3+O+++O+++O++O+++++O+++OO++##+++++++&yVKa;++++++O"
};
