/* XPM */
static char *_8089d269bb24448c0fd3f16a87f189fp8rHWfF0zpS1enNd[] = {
/* columns rows colors chars-per-pixel */
"100 100 86 1 ",
"  c #272727",
". c #2C2A27",
"X c #272728",
"o c #2B2A2A",
"O c #312E2B",
"+ c #33312E",
"@ c #2F3031",
"# c #363432",
"$ c #393635",
"% c #3A3837",
"& c #373538",
"* c #39373A",
"= c #3C3B3C",
"- c #413E3E",
"; c #43403F",
": c #3E3D42",
"> c #413E42",
", c #3F4045",
"< c #434245",
"1 c #4A4545",
"2 c #45454A",
"3 c #49464A",
"4 c #47494D",
"5 c #4A4A4E",
"6 c #524C4C",
"7 c #474950",
"8 c #4C4D52",
"9 c #504F52",
"0 c #4E5156",
"q c #4F5259",
"w c #515156",
"e c #505256",
"r c #535356",
"t c #535357",
"y c #545155",
"u c #545457",
"i c #595556",
"p c #515358",
"a c #555358",
"s c #51545A",
"d c #53565B",
"f c #565659",
"g c #54575B",
"h c #55575B",
"j c #53565C",
"k c #54575C",
"l c #57575C",
"z c #585759",
"x c #58565A",
"c c #55585D",
"v c #575A5E",
"b c #5A585B",
"n c #5B5A5C",
"m c #585B5F",
"M c #5D5B5F",
"N c #605D5E",
"B c #535760",
"V c #565A62",
"C c #595B60",
"Z c #595C60",
"A c #5A5D62",
"S c #5C5E63",
"D c #5C5F64",
"F c #5B5F68",
"G c #605F63",
"H c #5E6065",
"J c #5E6166",
"K c #5E636B",
"L c #626065",
"P c #626266",
"I c #686667",
"U c #656468",
"Y c #67666A",
"T c #62656C",
"R c #64696E",
"E c #6B6A6D",
"W c #606770",
"Q c #646B73",
"! c #696E75",
"~ c #6A7077",
"^ c #6B7279",
"/ c #717172",
"( c #72787F",
") c #787879",
"_ c #737980",
"` c #7E7E81",
/* pixels */
"ZCmvvvvkkd85:$vd0pdddkvvvvvCZSSDJm=-SYYYYYPSSmmMMmgyx93>=mSZZZmZCCZCmvgdddeg<gv88888008pg$4SZZZZmvmv",
"mmvvvvdpe888>%k00pq0ddgvvvvvZZZZSk$<xGPPGSMbMmMmbmg9y95<$kCCZZZCmCmvvvgdde0g<gd88000q00ed%3CvvvmZmCC",
"vvvvvd008888:$gq0pd0ddddkvvmmvvvme#<gmGGSMMMMMmmbbxyg93<%gCCCCCmvmvgvgdeee0g<md800qpdpddg=<mvvvvvvvm",
"vvvvd0088888=$kq0qqddjdedvvmmvvCC8+<gMSSMMMmmMmbxxg99>>>$8pvmvvvvvvgde0ee00p<md00pddddddg=-vgdgvvddv",
"vdgp00888888==k00qqdddddddggvvvmZ5+1gMSMmmmMmmmxgxy9<==$O>5evvvggvvvd8800880<Cd0qddjkkvvm<-vggdkvvdv",
"kde008888858==k88800008888808edvC<+3gmxmmxmxxmxxyag8-=&=<=<40vvvkvvkp8808888<Cdpddgkvvgvv<=vdvdddddd",
"e00088888558==k8888888888888888dk=+3ymxmmmmxxxgggy9<==$eSu=<48gvddgd00088888<mdddddgvvvvv3=kdvkdedkk",
"800888885554==k8555888888888888eg##<259ygxxxxxgggy3==#<mvZ8=248ddddq08888558-mddkkdkvvmmv4%gdgkkddd0",
"888888854444=%p8455588855588555de++==>>><<35898ee5=*&$dvmCm5:248ddd088588585-CddkkkgvvvCk4$eqdddd008",
"88888854444<&&44445555855555555k3OO++#$$=======:==&&#5CvmZZm5:<<8p0888885583=mvkkvgdvdvZv4#080008888",
"8885554444<:O+==<45888555555558k=+454<==&####&$&&&&+=gdepee8p<:<<2444444444$=vvvvvvvvvvCk3#e85888888",
"8884544444>&#eg3===<48888555558d$=0pp0p8885<=%#OOOO+484454444<#=:::<<<:::=+O=kkkvvmCZZvdk5#e88888888",
"55554444<<=+5RERPg3===:<44555485#58qjKKJZZgdd083<%+O=::===$$#+OO+#$$$=&=#..O=kgdvmCvCCmmk3#845558888",
"4444442<::#3SJJPTRRPm53=$#&==:<==000T^QQ!QTQRKZvd05#O##&$$==-><<<3333344>$OO=088pdkkkvmCd5+=:::<4445",
"42424<<::#=CZZSJJJDJPPJZg83=$+OO5ppd!TKKTTTRQ!!!QKp==224434555599eyxxxg542=O#<488888588884OO#&*::::<",
":>>:::::##eDZSZZZDZZZZmCCZZvg0%&0ddKQKKTTTRRRRRR!~K=<epayeggxugbbbbbmMTT8<2>$=<4244<:<:==#OOO.O+##&:",
"#&&===*#O4ZDDZZDSDDDSZZCCmvvvd$3kpC!KKKKKKTRRRTRQQK=<SxyyyguugbbbubbubbSP9222=+OO+++#%%%=-;<<#OO+OO+",
"=$#+OOOO+5pvZZZSZSSSZZZvmvvg05#8kgTQZKKKTTTRRRRRRRJ=<gye9yggeuxbbuuubbbbbmg5<=O#-11669yyyyxxMe+=0843",
"vde84:=#+#=48pggvZSZZZmgg8842==dkJTZZKKKTTTTTTRRRRJ=>eee9eyguuxxbbuugbbbbgbm<=+;6xmxxMMMbbbbmu+4TTZD",
"ZZZJDZCd8<=#=<558pvvkp8554<:=+5kvTZZKKKKTKKTTTTTTRK><eeeeeeegguuxbxyuuugeugb3=+1mEMbbbbbubbbb5#0Jdkv",
"vvCZZDJTRTv4+===<48854<:<<5e8=pkKZZJKKZKKKZKTTTTTTJ<>eeeeeyyuueeuuuuuuuugguu<&+1MPbbbbbgbbbbb3$vZdgv",
"vvCCZZSDJRJ8%08<%$===<48egCve=8ZZVZZKJZKKKKKKTTKKTZ<:889eeeyaugyuugxggbbbbuy>&#5xbgbxxbxbbbbb==Zvddv",
"vvmCZZSDDJJ8=ZJp04=+=48888dd8=4VVVVVZJZZZKKKKKKKKKV:=555899eeeeeuugxguuuuuuu:&#5xbbbbbbbubbue$<Cdped",
"vvmCZZZZZJJ8=T^Q^_!v3==:2588<$4jVVVjVVVVZKKKJKKJKKZ<=55588589998eegguuuuuege:&#1euuuugguugux5#5v80ee",
"vvvvCvCZZDD0=JQ~^_((^Tg4=$==&#<8jBVjjVvvvZZJJJZKKKC:=55558888888888eeeeee985=#$3ugxxuuuuubgg3#0d0000",
"vvvvvvvvCZDp=Z!!~~~^^^^~Rv4$O#<7jBVjBVjvVVVZKKJKKKV==455358888888533333<==$#+O%5uugbxueuuubg>%gp0000",
"kvvvgvmvZZZd=VQQ~~~~~~~Q~~!C<#<8jjjVVjBVVVVVVZKKKKj=#=<<<>>>>-====$##+++O+###O=5yubguuuuugbe==d880ed",
"kvvvvvmmCCZd=vQQ!!!!~~~!!QQT8#:8jjjjjjjjjvjVvVVZZV8=O+####+###%==-<<345888dp8$=5euueubbbbbb5#3d000pd",
"dgdgvvvvvmCg=kQQQQ!!!!!QQQQTd&:4jjqqjjjqqjdjvjjjj04=O#-33450eedvvvvCZTDZZZJZ0==5euuuguuugbu<O5p0qpdp",
"dddkvvvvdvmg=kQQQQQQQQQQQQQKv==4qqqqjjqqqqqjjdqqdq4=OeTJJmZJJSJJSSmmJSmmCZZZq==4yguuuuueuue=+8000qpd",
"ddddgdgvvvvg=dQQQQQQQQQQQTKZV==4VVVVjqq0dd00jd08qq4$+vPJZmZJJJJSZmggmZvvmZZv0&=4588euguyye5$&08880pp",
"p0q0djkkvvvg=8QQQQQQQQQQQKZZV<&<dkkVZZjqqdqq0q88q8<&#vZZSDJJJJJDZgeevmvevmmg8#=:===>242<:=&+$088880q",
"p000ddjjgkkg=8WQQQQQQQQTKDZZV4&:0ddddvZZjqqq8qqq08:##dvZZDDDJDDDZvgemmvvvmme0#+#&&##$=====$O#0888800",
"000pdddddddp=8WQQWQQKKKJZZZVv5&:8pqdddkvDkq808qqq8:##gZZZSSZDZZZSmggvvvvvmmd8##>45880ddpqq0=O5844888",
"8888008eddpd=5KKWKKKZZZZZZZVj5#:4qpp0ddkvZj8888082:+#gZZZZZZZCvZZdeevvvvvvvd8+4KZVVVVBjjBjj8#<088885",
"88888888880d=4ZDFZZZZZZVVZVVj8+&<0ppq0dddgvp88882:=.#dZmZZZZZZCZZgeevvvvvmmg5+0JBVVVZVVVZZVp3%857458",
"88888888888p=3ZZZZZVZZVVVVVVp5++&:70qppd00q05<<:=&O.#0vmmZZZZCvCmdeevkdvvvve4+dVBVVVZZZVZKZV8$584458",
"88888888458p=<VVZVVVVVVVVjq824+OOO&:<<::====$##$=:<=#8vCCZZZZCmCveeevdddvvvd4#dVVVBVZZZJKKKZp%<82447",
"445884488558==kVVVVVBjp884<:=#OOO.OOO+++#&$#+4eddvd<#pmCCmmCCmmvgeeegddddvvd3#dVVVVFFJJKKKWZd%$84447",
"44444445554:+=08887442<:=&+OOO++#%=><<<<2<<:=dgvvvd<#emmmvgvvmvveeeeg00dkvdd<#jVZVFKKFKKWKKKd=#54244",
"4444444442<#O#4<<<::=&#++#%-359yxbmSSg85444>=dkvgvk4$egvvvgvvvgdee00gd00dgkd<&jVVFKKKKKKKWWKk4<48224",
"22444<<<::&OOO==&&##$=<5eumMSMbMMbbbbbmmggS3=dkvggv5%egvvvvvvvvd0008eg0pdedp==VVVZZFKKQWKKQTk5e38222",
"::===&&#++O+++##OO=8mSSSMmbmmuubbbgbbbxxugm3%gvvmZv5$8kvvvvvddvp808880p0dpdp==jjFKZKKKKKWTQTk3e8<<<,",
"#&$===<344355888=#8PMbbbmbbmbuuugbbuugguygg3$evCCZv5$8kvddvvddp8885555p0q0pp==jVJKKKTKKKKTQQj433+OO+",
"0pdkvVZZJJZvdddd<&8MbbbbbMmbbbbggbuuuuuuyeg4#evZZCg4$8dkkdgdd088885558pddpp0%:VKKKWWQQWKTRQQk4#==<45",
"8pdddjvvCZTTTTJT3$ebbbbbbbbbubbbgbuuueuuyee<#evvZC8<&5888e008855485558000008$:8jVFKWQQQQQQQQv8#5dqq0",
"00pddddvvgvmZZmJ5$ebbbbbbbbbuugbgbuueeuuyy8<#evmZv4<#<4<<4444454444445885444+=<<4788pkVZZJKTj4+40888",
"00pdddddvvmCZZmZ3=ebbbbbxbbxuugbbbbuueuge85<#44543:=O#======::===========$&+OO+#&=::<444444=##X@#&88",
"08pddkkvvvvvZZSD3=9bbbubgbbbbbxuuguuuyee855>O=<<345558egkvme5555<O$===>==>=======$$###&&$&=o XXXXo40",
"88pddjkvvvvmZZSZ3=8bbuubbbubbubuueeee988555>$VJJKTWQQWQQQQ~~QTKk5#<egeeegxggggggggg842<:=&O Xoe#Xo40",
"0qqdddkvvgvCZZZg4=5ygbubbbuuuyyee8695885355>=ZKKKKWQTWQQQQQQQQQd8&<egyeeuuugugubmbmMSme542#.XoP<Xo40",
"qppddddvvvmCmvge4=55eeeeeee5558989999855355>:FKKKKWWQQRQQQQQQQQj8#<egyeeyuxbuubbbugbbMPPm8$oX#<XXo28",
"0qpdddkvvvveeeee4=3555588999558955555555555><JKKWWQTTKKTKZZVjp008#<9gyeyyuggxubbxeebbbbMM8&#XXXXXo48",
"88800epe0ee0eeee3=3555885588955885555555555=<ZJFZVkjdee8888844<48#<8gyy9euugxxbbxuxbbbbmm4=3,<<#=:44",
"8888888880eeeeee<=4355555555535553555533333==544488885585884<<::=+>5yeeeyuggxbxubbbbbbbbm4=kgvm<4p08",
"vvvdde088880ee84:$=:::::::>>>>>>>>>>::::**:$=<<<<<<<>=====$$$===#O<5eyyyggggxxuubbbubbbbb<=kddS3<dqj",
"0qq0kvvCd88085<,=O###&&&&&&&&====&&&&&&&###OO#####$==><3580dkkvv8#<8eyyyyuubuuuxbbugbbbbu:-ddgS5=888",
"80qqpddvvg084<:&+####&#####+++OOOOOOOOO++#%=-35eegZJJJPPPJZDZvvZC=:5eeyeyyugguubuuuubbbbe=<ppgZ5=888",
"8000pdddjp08<=#=8dd00pe80088843#OO+$=<358edZPTTTTJPJDDSmZZvdvvvdC==5eeeeyugguubbuugugbbg5=3p0pC8%844",
"45880ppp085<$=eZSJJJDCkppddpqp8=OO40p0edppS!!PDSJZSDDSZZZZmgvmvvv=:5eeeeeyuuuubbggbbbuee3=300pve$54<",
"444455884=#=8CZZvvCSDJSSCmkkde<=OO4pqepkDTRJZZSJJJDZDSZZZZZvvmvvk:=4eyeeeuggguxbuuue55555$488880#<2<",
"455554<=#%5vCvmmmvZZSZZSPTRQRR5:+O<qdZJJTPJJZSSJZJDZSSZZvgvvvmvvv<=49eeeeeggguueee8955554#485444+=24",
"=====#O+<kvvvvmvmZZZSDZZJJPTTRe<#O=8kPJJJJSSZJJJDDDSZZCvvvgvvvddv4=4599eeee95588999e5533<+$==$#+OO##",
"3<==+O=0kvdgvvvvvCZZSSZZZJJJJJd<&.=8gJJJJJZZDJJJZZDZvvZmmZmggdddk4=455558855335558995555<O=5edddgde0",
"Tp0q=+0VdddkvvgvvmZZZZSZvZJDJJv4=O#0dZJDJZZZZSJDZZSmvmZmZvvvvvvvv5=445555555555555555555=#8T~!QQQ!~^",
"^!TZ3#0vddkvvkgvmmZZZZSSZZZZJJC4:O+8egDZZSZCmZSZmZSZmZmmmvvvvvvgv5&<==><5553555555555534$=dQQQQRRQQ!",
"~~((5+8kddjvvvvvmCCCZZSSZSZDJJZ8<#O5eegZZSZZZZDDZZSZZZZZCCmvvvvkd5=:&&&=><35555555335534&3vQQQQQRQ!~",
"~~~^e+5dddjkvvvvvmvvCmZZZZZDDDDp<&O4deemDZZDDZZSSSZvmZCvgvmvvvdkv8&&&======>343533333352&5ZQQQQQQQ~~",
"~~~~g+4ddddkvvvvvmmCmvZZZZSSSSDk4=O<peeeZDZZSZZSSZZZZZCvgvmvvvddv8+O+#&&=&===-><3343333<&8KQTQQQQQ!~",
"~~~~Z#3ddddgjvvvvvvmmmmZZZZZZZZm8<O=peeeeggvZZZSZZZZZmCmvvvgvvgdv0#$$#+++#&$&=======>>>==pKQQQRQQQQ~",
"~!~~K$<dddddjkvvvgvvvvmZZmvmZZZmp8+#0e88eeeeeedgvvdkmvvvvvvgdkgkv8$8vd053<=$#####&&&&&&#<kTQQRTTQQQ!",
"~!!!T==dddddjjvvkdvvmmmvmmvmCZDRZ5##8e8890088588885580e0dgvgdddvd8%eJZZDDZCge84>=%###+OO3vTQQQQRQQ!!",
"!!Q~R==pp0dddkvvjdvvvmvgvCmmZJTRJ8=+8p8588888558885588885800e00d08%0mvvZZZDZJJJmdp085=O+5vQQQQQQQQQ!",
"!QQQQ<%000ddddkvkvvvvvvvmmvvJTJJS8:O4p8888888888558885585555555555&0CdgvggZvZDJZZZDCd0##eCQQQQQQQQQQ",
"QRRQR3#0ppqdddjddkvvvvvvvvmJPSSJZ8<O<04444555555558855555535355555&0ZvgmmvZmZSSZZZDPC0#$dZQQQQQQQQTQ",
"QRQQR3#8ppdddddddjvvvvvvvvSJSSDZg8<+=<::::<<<<<22444444444<<<2<<<4$0ZvvvmCZZZZZCZZmmCe%=kZQTQQQQQQQQ",
"QQQRQ8#8pq0pdddddkkvkvvvvZSCZZSme8<#O%==========::::::>>:::::::::=#8vvvgvCCZZCmCZmvvvp=-dZQQQTTQQQQQ",
"QQRTQe+5p00pp00dddjkddvvvZZCZZCe08<$+8jVvvkggde5555443$+O+##&&===O#8eegvvvmCCmCCmvvgvp<3dVKQQQQQQQQQ",
"QQQQQd+5d0qp00qdddddkkddvZmCmmd088<=#0Q!~~~~^^^^^~QRvp=+>4580pgv0=+5858eegvvvvmmmvvvvp44gkZKWQQQQQQQ",
"QQQQQv+4p8800pqpp00e0888kvvmve0888<:#0QQ!~!Q~^^^^~^~Jp:<CjjqddjZZ5$8858000ee0dvvvvggvg3=kkVZKQQQQQQQ",
"QQQQQV#<0444455544555555dpp88544<<::#5QQ!~~~~Q~~~~~~Rd<4V880ddpdZ0=8088800008eeeddgdvv5#egkZZKQTQWTQ",
"QRQQQZ#<q4244444458885480544<<::::=&+3TQQQQ!!Q~~~~~!Rd<<j000ddedZp=80588808888800pdgkk8+4kkCDKKKKWKQ",
"QQQQQZ$=4<<<4442<<<<>=====$&###OOOOOO3TQQQQQQ!~!!~QRRd<3v000edddCg=885558888888880pddp8==dkCZZDDZKKT",
"JKKKQZ%O#&####++##&&$$$$=========>>=+8KQQQQ!Q!!Q!!QQQj<3V00pddddCk=585438888888588888ge<<8dkCZZZZZZK",
"ZCZJKV=O=><33=O=<224333359xPSMmbbmp4$0ZKTRQQQQQQ~QQQQj<<ve0dgdddCk=585555858888858855pe<4<pkZVZZZZZZ",
"ZZJJJV=#evmmv0#:48eeugggMJPSMbbbbbm5%pZZJJKJTTTQQQQTKj4<vdddvvvvmC<585555555455888854ee<8<0jVCVZZZZZ",
"ZZZZDV=$gCZZZd$>8ggbbbgbbbbbbbbubbb4=evCZJJJJJJKTTKKJd3-vvddgvvmvm<5844555432455555540p<544qqjkVCCZZ",
"dddkvk==vCZSZd$>8auggbbubgbbbbbbbbb4#<<480pdvVZZZDZCvd3=vvvgvgvmmm33e88888888888885548p<45:548888800",
"888888==vvvSDd%>8guubbbxbbbbbbbbbbg<O#&&=:<25888808548<=ggvgvvvmCm44vp0pd000pqppvd0548p=<3%#$=<<4448",
"===::<&$588e08=<euuuggugbbbbubbbbx8=O%551-======:><<<2=$dgvvCCmvmk33p88884888888888880p=O#===%$####$",
"53<-=%##$==:::#<eguuggguubbuuuueee5=O9`)/EINx61<-%$$$&O#ddgmmCCvvg3<8888878848888854880=.<SGJDDZmgue",
"!RPDSCmg83<=#O+28eeeyyyeeeeee558995&OM)//E/~!EYPMy61<-##evvCCZCmvk5<8344445445544424<40:.=DSvmZZZJJT",
"JJSZZZZZCCZCe%+<5555558559995550993##I//EEEEEEEEEEYGi5<+8vCCZZZZgd5<42444444444442<<,:<=+=ZvgvvvvCZR",
"JDZZZCmvgkvk4&+2555555555888555555<+=Y~/!EEEEEEEEETEE9<#5vCCZSJDkd8,4222444424<,:::<<3588=mvvvvCZSTP",
"JDSZZCmvvvk8:##<455555555555555555>O<TEEEEEEEEEEEEYYEu3#4vmvgpp8584=4<,::===$$=<30dgkg844>vvvCZmDTJJ",
"JDSZZCmvvvk8:#+&&==>>><<<333333353=O5EEEEEEEEEEETEYYYm5#:8544<<<:=+.++++++++O=pkvkd084<:=$gvmmCZTTJJ",
"JDSZZCmvvgk8:#OOOOOO+++####$$$&&&=&O6EEEEEEEEEETTTTTTb5%+=:=&&###%=;33588ede=<8888884<><$+gvmmZPJJJJ",
"SSZZCmvvvdk5:++%=-<333<<==%#++OOOOO+yEEEEEEETEETTYYTPx5=OO#=39gSJSSJJDCvdddZ<=4<>>=<5eZD5+yCgvJTDDJS",
"ZSCmCmvvvkg5:+5JZvvZZDJJJSDZmge3=#O#xETTEEEYYYTTPPYPMx5-O%gRRRTJJZZZCmvgd00v<#==<5emkdvD9+eCvSJZZDZZ",
"ZZvmCvvgkkd5:#gZ000pdvvvmvZDJJJTRC=#mEYTEEEETYYTGSGMby5;O5RTJZJZZZZZCmvvdd8g<+5mJme8558Ca+8ZDJZZZDZZ"
};
