/* XPM */
static char *c46f90ab81644a9de0ef32d22f2ad073L0Ok2Tcyf9NoaCed[] = {
/* columns rows colors chars-per-pixel */
"100 100 65 1 ",
"  c #1C1F21",
". c #262727",
"X c #232729",
"o c #272A2C",
"O c #2A2B2B",
"+ c #2C2F31",
"@ c #2E3134",
"# c #343536",
"$ c #32363A",
"% c #353A3E",
"& c #373C40",
"* c #393E43",
"= c #3C4145",
"- c #3F4448",
"; c #444445",
": c #41464B",
"> c #44494E",
", c #474C51",
"< c #494E53",
"1 c #4B5156",
"2 c #4E5459",
"3 c #545555",
"4 c #51575B",
"5 c #53595E",
"6 c #585C5E",
"7 c #565C61",
"8 c #595F64",
"9 c #5A6065",
"0 c #5E646A",
"q c #616465",
"w c #60676C",
"e c #62696E",
"r c #646B70",
"t c #646B71",
"y c #646C72",
"u c #666C72",
"i c #676F75",
"p c #686F75",
"a c #697077",
"s c #6B7277",
"d c #6B737A",
"f c #6C7379",
"g c #6C747A",
"h c #6D757B",
"j c #6E757C",
"k c #6F787E",
"l c #70777E",
"z c #71787E",
"x c #737B82",
"c c #747B82",
"v c #747C83",
"b c #747D83",
"n c #767E85",
"m c #787F85",
"M c #778086",
"N c #788087",
"B c #798188",
"V c #7B848A",
"C c #7D858B",
"Z c #7E868D",
"A c #7F888E",
"S c #80898F",
"D c #818A90",
"F c #848D93",
"G c #858D93",
/* pixels */
",<<<<>--*>577542211111<,--,<<<,-=-575421111<>*,24211125575157777777888888777521,=,,<<<>-=177522111<,",
"277777751:79998788877772:-<577774>7998788777<-2899778899745phfddpiue099990009972=>277775,19997887774",
"899999987279909900wrre08,-29999984790990wre05-59851590id015iadzxxxxxzjfhhjzzji07-,7999985499090werw9",
"998799972880djhjjzxxxxd91-798899579ejjjzxxxa7:799859ujxxzr890w0ejxjhxzjxpaxxxxh0:1987997480fjjjxxxl0",
"99889998899pxxxxxxxxxxj01:898899889fxxxxxxxh8>8990dzxxxxxxxxCSCjuhhfxxxzeaxxxxBa-298899889rxxxxxxxxe",
"999999uzr90zxxxxxxxawfxw1>99999uh0wxxxxxxrij9>899hxxxxxxxxxhhxbNxpaxxxxxzxxxxxnh-499990je9dxxxxxdeju",
"99758exBxjhxxxxxxxxjuhxu1,99770xnjhxxxxxxfax0,890jjxxxxxxxxapxjjxxhjxxxxxxxdejnh:59859dNxhzxxxxxzizd",
"99417ixxxjhzxxxxxxxxxxbj2,9942exxjjxxxxxxxxbr,899jhzxxxxxjxxxxxxxxxxjjxxxxxjujBh:79718jxxhjxxxxxxxxx",
"88979fxxxjaiijxxxxxxxxBB4,9888uxxzaihxxxxxxBd,899nphxdjxhjxxxzdxxxxxjudxxxxxxxZi:78980jxxfiazxxxxxbZ",
"22890zxxxxxxhuaxxxxxxxBC4,7289axxxxziaxxxxxBa,899BcxdwxjuzxxxxzxxxxxxkierhxdxxZe:7459wxxxxxdujxxxxbZ",
"7799exxxxxxxxzrrxxxxxxZx4,8789hxxxxxxuaxxxxCu<899Bnz0ixxxxxxxxxxxxxxxxxj90ujxxZw:7789uxxxxxxdrzxxxnB",
"9999uxxxxxjxxxxerxxzzbDr4,9990jxxxjxxzwjxzxZ0<890Bne8zxxxxxxxxxxxxxxxxjudziehxC0>7999ixxxzzxxuuxxzCj",
"9999rxxxxxjxjzxj0ehjjBC04,9999jxxxjzjxawhjnB8<890nd5rxxxxxxxxxxxxxxxxjujxxxheaZw>7999uxxxzzjxjeijjZu",
"99990jxxxxxzwuxxxd00wzz72,9999axxxxdexxh00dz5<890p77hxxxjzxxxxxxxxxxjazdaxxxjux0:7999exxxxzefxzu0en0",
"999ew0xnxxxxjjjjduihjNC92<999e0xbxxzjjhiijnB7<898729hxxxeaxxxxxxxxxxazxawlxjjjBw-799w0pnxxxjjjdudjAu",
"998558aFxxxxxzhhjzxhznFe2<99757hZxxxxhhjxhbS0<722,29wjxxdhxxxxxxxxzddxzzdxxxarBh>798550ZbxxxjhjxjjZl",
"5427990SVxxxxxxxijxxxxSp4174279eSbxxxxjfxxxC0>27554529pxxxxxxxxxxaudxxzxxxxxxzBa>752599nBxxxxxaxxxBz",
"5789999aZxxxxzzzhjlxxxzu4<558999cMxxzzjjzxxj0>897747479edjhdahzjuijzjjjjjjjjxNN9-257998uBxxxzzhlxxza",
"88999999wew000000900er08:>9899990ew000000wew2$1988598888999889000000009999990e0,*58888890w0000090ee9",
":-::::::------=-----:-:-@%::>>::----------::&o%:---:----------**>,,>,<<<<<,>,>>>>>,,<<<,>,>>>=*>,,,>",
">-*=*>,,>:>>>-$=>>-==*><,>>:>>>=%:>>>::>>,,>><,,,<<11111<<,,>>@#58747777799889were00000900rp0%@58727",
"4441-298775541*:14441:199875554,=178755788840rew00099999999872*-88555270djjjhjxdrhxxxxxzxxxBx,-88557",
"99994299899097=:5999971998899094-5985599w922hxxxxzjfireruiie97=-454275wjxxxxxxxxjiazxjxxxxjlN2-45427",
"9998570iupfjf0-:89998479uuuahjp7:798250axl04700ixxxxxjxzhxxxf0-:721<8rzxjpxxxxxxxxhdxzfhxxpaC1:741<8",
"879879uxxxxxxe->9879878exxxxxxj8>8990ujxxxzaaxxrrzhaxzxurxxxbd::99927hxxfrxxxxxxxxxazjwdxjzzx>:99947",
"999009hxxxxdjr:<9999009axxxxjdj9,89wjxxxxxxxxnBZxifxxxxhhxxxbn>>99ue5dxxxzxxxxxxxxxjpjhxxxdux<:99ur4",
"980nzuzxxxxrai:19980bbrjxxxxjwj0,89ixxxxxxxxiixjxzajxxxxxxjjxn>>98hb8exxxxxxxxxxxxxxjuzxxarxn<:98fn0",
"52exxxxxxxxzxf:1952wxxzxxxxxxlxe>89ujxxxxxxxjjxjxxxxxxxxxxprxn::98hBp8jxxxxxxxxxxxxxxjudurjnb<:98dBf",
"75uxxadxxxxxxb>1985rxxdijxxxxxnd>88izdxzxxjxxxkkxxxxffxxxxxlnn::98dCx0ixxxxxxxxxxxxxxze8izxnb<:98aZx",
"89axxzdaxxxxxB>1779ixxxhijxxxxNj,88pbdjuxahxxxjjxxxxzuihxxjxNx-:98anjhrxafxxxkkxxxxxdrujxfxnN1:98pnj",
"79hxxxxdixxxbn>1579dxxxxjrjxxxNf<88aCxruxjzxxxxxxxxxxxh00hzxNj-:98pjaxjxjjxxxjjxxxxhizxxxxxxB1:98ilp",
"99jxxxxxufxxnz>1999hxxxxxhuxxxBr<88dVh8jxxxxxxxxxxxxxxlruedxNh-:99ujzxxxxjxxxxxxxxxxxxxxxhrxB2:99ujl",
"99jxxjxxhejjBa>1999hxxzzxxrazxC0<88hM00xxxxxxxxxxxxxxjijxjriBj-:99izxxxxxxxaixhzxhjxxxxxxjpxn4:99izx",
"99hxxxhaxaernr>1999dxxxzixjrrpN8<89pa5axxxxxxxxxxxxxjijzxxxuhl-:99rxxxxxxxxjjbBnaaxxxxzjxxxxB4:99exx",
"90ixxxhpxjrrbw:1990uxxxzuzxaeab5<99057hxxjdxxxxxxxxxazjejxjzja=-999rhxxxxxjzBCxudjdxxxpexxxxb1-899ed",
"998nnxxldajjVf>29997bnxxxdadjxZ0<852<8pxxhrxxxxxxxxhdxzijxzizN-=89847ejxxi77990hxzjxlzlaxxxzr<=79845",
"548zBxxxzjxznj>29548hCxxxxjzzxVe,422177uxxxxxxxxxzdpzxjxxxxdzN:%7972490ue22ajjxxxxzhaaadhhaw9>*59724",
"588uZxxxxhxxxf>14589eZbxxxhjxxbe,7854527ejxxzzxxjrdxxxxxxxxxBj*$28987889874eaauure09999999985-*28987",
"9990hhdapppfhe:299999ajdapppahd9:798588990eew0rauidpuuurruihz0@@,11<,<122411422224445544421<,*$><1<,",
"2222221111124<+:222222211111124:X:21<221222111122222222222211,@$-==--&@%-===-=========**==--:*&==***",
"**&&&&&&&&&&&%@%%&&&&&&&&&&&@%&%@%&&%&%%%$%&*%-4222222225442257777908<+>7745777777775789887888877895",
"1224555555442242112221<<111>&:,<<<1222>=-:,,,-:7789999wnxzjjjhffhjzjd9>79757789eipurahpujjhdddddhlNa",
"890099990wruiidde47898878982-177887899,157771->7524898zSxxxxxxdhxxxbB0,4854527uxxxxxxxxaujxxzxxxxxnN",
"eajjhdadjxxxxxjha24ru0922895-70w0099982799995->9985480AnxxxxjjjzxjzNC9<521<79axxjxxxxxxxjajxjzzxxpfZ",
"xxxxpjzjxjzxd00088axxje75897>9hxzjffd97499898::9999e9aBxxxxljhdidjzAb7<88717pxxhezxxxxxxxzdxzudxjdlB",
"xxxxrixxxdjdubSBzzxxxxxhr998,0zxxxxxxe8899789>-89999uxxxxxj0hxxjw0enu4<89w05dxxxjxxxxxxxxxdhjrjxxzah",
"xxxxjzxxxxaanNbjjxxxxxxxxe98,0jrjxxxxa9uu9999,-89999dxxxxzzdzxaeidhZj8188ux7exxxxxxxxxxxxxxadxxxzrhn",
"aerfxxxxxjhxzhxiaxxxxxxxzr98,ejuzxxxxjdnx07891-89999hxxxxjxxxh0jxzzBN9188uBi8jxxxxxxxxxxxxxxadxa9ehh",
"5349zxxxzxxxxxxxxzjxxxxjjr98<axxxxxxxzjxx02791:88899fxxxxxxxjedxxxxbZ0<88rZz0ixxxxxxxxxxxxxxxr044566",
"5959zxjihxxxxhjxxzjjzhxpxr98<znxxxxxdujxxe7891:84499pxxxxxxhrdxxxxxxSp<88eCxdexffxxxxxxxxxxzi0r94986",
"6q48durfxxxxxjzxxxddxrjjBr88<cnxxxxaaxxxxi9751:88898exxxxfiilxxxxxxxZa<89ebpxazhhxxxjfxxxxzuazx95q88",
"55548ezxxxxxxxxxxxxxxiexZu88<jNxxxaixxxxxd9771:998440zxxjdjxxxxxxxxxnr,89ezhxxxxjjxxxxxxxxjjxxx95358",
"ew7wjihxxxxxxxxxxxxxxj8aVp881uVzxzelxzxxxf9991-898550jnbzjxxxxxxxzdzz0>89ejzxxxxxxjdxjzxzjxxxxxa98ea",
"jrdxxxihxxxxxxxxxxxxxx09np881wZljrixzlzxxf9991=899999rmh0exxxxxxxa0jh9>79exxxxxxxxfixxbjajxxxxxxxzxB",
"efxxxdjafxxxxxxxxxxxxxa5rr98<8be0dxjezxxxp9991*59988999999hxxxxxxzjxa8>799pzxxxxxxxBZZjuhjxxxdixxxxB",
"hlhxdwjxazxxxxxxxxrhxxd74998<9Cjiijjfxxxxew991*49978998489ekxzzxxxxxu7>79980axxxjrwaa0rxjaxzzdrxxxxf",
"auxxjhzxhdxxxxxxxxajxje8<127<uZjjjhhxxxBj77891*1799999854790000eriiu05-598229ehd820ruhxxxxxjjzjxxzp0",
"zjxxxxzxxaujxxxxxxxxh0472552,pBxxjjxxxxCu85272*,28888884>7999789988871-29977999842axzjjhdpe000wee098",
"Bxzzjjlzzxjudxjdfjjp07475587<rxxxjjxxxbN09975<=,<1221,>=>577754222221>*,4542245774709988888888887741",
"ue0000000weeww09999999987994*7ruwwwwweuw999991%=--=&%%*%=---======*==%@========---=------::::::-----",
":>>>>>>,>>:::::::>>>>>>>:>>&o-,>>>::><,<<11<<>:::------:::::::-:>% %>:-:----::>>>::*o-:--------::::-",
"::::$%>>>>,,<<<<,,>>>>>:>>>>::::::-%4ew99778900weww098999889975995*4ruw000were999994=8re0000wee99999",
"7771*-258899999999000ww85887755777,-rBbxzjjjzzxxdrjzhdfjju97475588,0zxxljxxxbB099851>ixxzjzxxxBe9975",
"5895*:89euureweudjjlxxxa22909957892>znjxxxxxxxjiizxxxxxxxxd9272574>wBxxjhxxxxZa87274>hnxxdxxxxBh8725",
"2797=,0dxxxjxzzxxxxxp00820lju922895>bxezxxfzzxajxxxxxxxzazxjw8,<27<0ZzjzhhxxxNb75894:dBjzjhjxxnm8589",
"9998-<hxxxxedxjxajjeejhrizxxxde9997>anjjxzwaxhhxxxxxxxxjejxxa72899<7Bzdifjhxxxbwe994:eBhiajhjxxbew99",
"jw99>1NxxxxahxxxlhuxZBnxxxxxxxxf098<ufaxxxdhjixxxxxxxxxxzxxxa5ee99<5zr0axzejxxxd9994:0z0ejxuaxxxf999",
"xi99>2Nxjzxxxxxxjazxjxudxxxxxxxxe98<aNrixxxhizxxxxxxxxxxxxxx08ba89<9Bxjruxjzzxxj9992:uBjdejzzzxxj099",
"hi99>2Bxedxxxxxxzxxzjxhjxxxxxxzje98<uBxurjdizxxxxxxxxxxxxxxj7aVa89<0Bxxxrjxzzxxj9992:dNzxaixxzxxj099",
"zi89>1Nxjxxxxxdjxxxxzxxxzjxxxxdxe98<pBxxa09jxxxxxxxxxxxxxxxu0xZp89<iBxxxduxxxxxh9872>bnxxzujxxxxj087",
"ba89>1nnxjxxhiizxxxxhlxxxdfzixane98<dBxjjjurixxxxxxjxxxxafxejjBu89,fNxxxxaaxxxxa9754>nbxxxjijxxxf974",
"Zd89><bnxjh0wdxxxxxxxxxxxjjxeaxZe98<jBxxxxxxaixxxxxdxxxzjzzhxixu89,fNxxxxxdufxxu8994>nbxxxxjudxxp899",
"Ch89>,cnxaewuxxxxxxxxxxxxxxxp9zZr881xndaxxxxxjxxxxxzxxxzzxxxxjjr99,rbxxxxxxzjxxr2594>jxxxxxxxhzxu259",
"Nh89>,znirlxfixxxxxxxxxxxxxxz8rBu881bbaixxxxxxxdkxjjzrjxxxxxxxzu99,0zilxxxxzfnnw7892:phaxxxxxdxne789",
"ja99>,zauxxxxdpzxxxxxxxxxxxxxe7jr981bbxxxxzxxxxhijNnxdzxxxxxxxxr99,9jrdxxxxf9ia99991:rfrxxxxz0ea9999",
"7099>>hhzzxhejhdxxxxxxxxxdzxxa590981hnxxxdezxxzdjudBSNzxxxxxxju998,8jxxxxxxu88898891:exxxxxxd9889889",
"<478:<Njalxdixxdjxxxxxxxzejxxu7157810jxxxhpxjxzfxxr90070hxxjr75898>7fxxzjjh08489889,-0zxxjjjr8489889",
"1124:1Bhdxxxzjxjidxxxxxxxzxzu871124,8wajjjfddhzxxxxzddw17ii0922897-40ee099094799997>-8wew09095599997",
"2587-,bnxxxxxxxxkiizxxxxxxje7154584:48900099990ruipahd027899878992-<77888899<<77772>*278888992,57772",
"5898%*ubhaiiiipadhuidueeuu098877897-,1255777777755555722554211122,*:<<<11255<=->,<,:%><<112452=->,<,",
"145<@$1554455555455442224444444245>%*==**==--==-=**-&$%===********&*====*%%*=&*%%*=&$*******==&*%&==",
"12115521111111111<%-12111<<111<<11455444445554552455>o>775444455555555555-$2777544545555555555555555",
"hjfdadddhjxw999975=5jbhdaiippaddhaeadueruir0987857898>8ajjdadddhjxd999987<1wdjjhddaddddhjzbr99999977",
"xxxxdxxxxxZj897224:eVbxxxxxxxxxzauhzxxxxxxxje81545585>0NxxxhhxxxxnAw9852514uBxxxxzixxxxxxxSV99985225",
"BzlxjjlxxxnC974797:aBadxxxlzjxjpdzxxxxxxxzjxza984<225,9ZbjxzjjxxxxZf8558912rFnxjxxjljzxxxxxFu8725899",
"DzjaadjxxxxBr90997-eZafjxzehxxazxxxxxxxxxaexxxd922788,7CMjhiahzxxxnc90999120DVxjjiadhzxxxxxBc99w9999",
"Bu0ixxdrxxxxje9995-9xdxzxxuuxddxxxxxxxxxxjhxxxj84e998,2jje0hxxrdxxxxa0999<15zbr00dxxxiezxxxxxfe99999",
"Adarixjdxxxxxr9995-0Curzxxxzpaxxxxxxxxxxxxxxxxa5rb098,7nbaiehxdjxxxxj9999<29mBdaieuxxhaxxxxxxxe99999",
"Czxzedxxjlxxxu9995-0Zxiehxzidxxxxxxxxxxxxxxxxx09xB098,8Bnjxdexxxjxxxj0999<2wSNzlxj0uxxxxhxxxxxu99999",
"bxxxjejxxxxxxr9885-0Zxxfee0hxxxxxxxxxxxxxxxxxf8fnC998,0Zxxxxuixxxxxxj0979<2fDxxxxxj0axxxxxxxxxr89889",
"xxxxxdulxxxxxe9545:0Zxxjji0rdxxxxxxxxxxxxxdlxeuxnB998,uBxxxxzudxxxxxf9827<2NBxxxxxxjrizxxxxxxxw99229",
"xxxxxxjudzxxz09875:eZxxjxxzhuizxxxxxdzxxxzijzuzjaN998,pBxxxxxxaihxxxp9978<2BBxxxxxxxxdudjxxxxj999779",
"xxxxxxxzddxxj82895-pCxhxxxxxxfjxxxxxzxxxxjxxxxxjdx098,rnxxxxxxxjajxxu5599<2xnxxxxxxxxxzhahxxxa825999",
"xjxxxxxxxzxbd82795-aNj0axxxxxxxzzxxjjxhfxxxxxxxxjj098>0xjlxxxxxxxxxxe5499,1pxzhxxxxxxxxxzxxxxu824899",
"h0hxxxxxhwfNr99995-fnxjzxxxxxxxjphxxjxpixxxxxxxxxz099>8jurxxxxxxuenz99999>1exd0pxxxxxxxxrwfCj0999999",
"xhjxxxxxi990998992-aBxxxxhizxxxzjpiNACBxxxxxlpppi0554:7hzhxxxxxj099999898:10jxhjxxxxxxxh999099988998",
"xxxxxxxj0858997891-0xxxxxaezzzxddxd0rjhuudxx9####@@@+O<fxxxxxxxp977998797-19hxxxxxxxxxze985899977995",
"pddireew975899998,=7ehxxxjjxzzxxxxxzae0045ix5O#;OOO;#.>eddaueer0755999995-,9waddaurewre9855799999982",
"99999799912899994>*490erurewwwuahjjjzxxj7150<O33OOO33.:8999988997,7899981-:58999999789997>589999984,",
"2445578991=>1222<>*,27899999999990000ww04799>O##OOO##.=2444557997-:<2221,--<2244455778998>=><22222<,"
};
